<svg
    preserveAspectRatio="xMidYMid meet"
    enable-background="new 0 0 100 100"
    xmlns="http://www.w3.org/2000/svg"
    viewBox="22.16 13.81 55.67 72.38"
>
    <g id="pickle">
        <!-- Main pickle body -->
        <path
            id="pickle-body"
            d="m77.835 39.083c0-1.539-.93-2.856-2.27-3.485.113-1.099.188-2.179.21-3.226.075-3.597-.659-7.222-2.272-10.482-5.059-10.146-19.515-10.739-26.295-1.766-1.223 1.63-2.051 3.603-2.697 5.663-.115-.01-.227-.033-.344-.033-2.227 0-3.992 1.738-3.943 3.883.036 1.578 1.045 2.931 2.455 3.538-.036.152-.07.312-.107.461-1.373 5.667-4.49 11.499-8.006 16.104-.219.286-.447.565-.676.847-.616-.365-1.329-.587-2.094-.587-2.193 0-3.918 1.739-3.853 3.884.027.885.365 1.69.893 2.344-3.61 3.984-6.833 8.17-6.665 13.947.207 7.143 5.141 14.138 12.515 15.617 6.913 1.39 13.149-.98 18.46-5.122.656.479 1.453.771 2.32.771 2.152 0 3.877-1.739 3.852-3.884-.01-.775-.253-1.496-.655-2.103 4.395-4.921 7.862-10.781 10.125-15.907.122.01.239.035.364.035 2.181 0 3.944-1.74 3.938-3.885-.004-1.271-.64-2.389-1.606-3.097 1.032-2.978 2.039-6.302 2.818-9.679 1.986-.221 3.533-1.844 3.533-3.838z"
            fill="#75BB62"
        ></path>
        <!-- Small detail near bottom -->
        <g id="pickle-bottom-detail">
            <path
                id="detail-1"
                d="m37.759 74.648c-1.165 0-2.334-.47-3.188-1.394-.787-.852-1.192-1.951-1.141-3.094.051-1.116.533-2.141 1.359-2.886.552-.499 1.404-.457 1.906.098.5.553.456 1.407-.098 1.906-.286.258-.453.615-.471 1.004-.019.417.132.822.426 1.139.596.643 1.586.712 2.208.151.554-.5 1.407-.457 1.907.099.499.554.455 1.407-.099 1.906-.794.718-1.8 1.071-2.809 1.071z"
                fill="#3E822A"
            ></path>
        </g>
        <!-- Small detail near middle -->
        <g id="pickle-middle-detail">
            <path
                id="detail-2"
                d="m60.206 55.186c-.028 0-.056 0-.084-.001-.745-.014-1.338-.629-1.324-1.375s.633-1.376 1.375-1.324h.031c.422 0 .814-.157 1.11-.443.285-.277.445-.647.45-1.042.008-.847-.705-1.551-1.591-1.568-.745-.014-1.338-.629-1.324-1.375.014-.737.615-1.325 1.349-1.325h.026c2.36.044 4.263 1.971 4.239 4.295-.012 1.121-.463 2.168-1.27 2.951-.801.78-1.86 1.207-2.987 1.207z"
                fill="#3E822A"
            ></path>
        </g>
        <!-- Small detail near top -->
        <g id="pickle-top-detail">
            <path
                id="detail-3"
                d="m55.078 32.085c-.507 0-.993-.287-1.223-.776-.484-1.031-.529-2.18-.127-3.236.408-1.071 1.224-1.914 2.297-2.373 2.163-.92 4.718.042 5.7 2.147.316.675.024 1.479-.651 1.794-.673.317-1.479.024-1.794-.652-.375-.801-1.359-1.163-2.195-.806-.393.167-.688.469-.834.85-.139.365-.122.766.048 1.127.317.675.027 1.479-.647 1.796-.186.088-.381.129-.574.129z"
                fill="#3E822A"
            ></path>
        </g>
    </g>
</svg>